<?xml version="1.0" encoding="UTF-8"?>
<svg id="Calque_2" data-name="Calque 2" xmlns="http://www.w3.org/2000/svg" viewBox="0 0 802.6 1001.31">
  <defs>
    <style>
      .cls-1 {
        fill: #f6f6f6;
      }
    </style>
  </defs>
  <g id="Calque_1-2" data-name="Calque 1">
    <path class="cls-1" d="M397.35.02c3.9.01,7.8,0,11.69-.01q31.62-.02,45.28,2.27c.33.33.66.66,1,1,2.8.52,5.59.98,8.41,1.41.84.13,1.68.26,2.55.4,2.7.42,5.4.84,8.1,1.25,1.83.28,3.65.57,5.48.85,4.49.7,8.97,1.39,13.46,2.08v2c1.13.08,2.27.16,3.44.25,7.65.82,15.11,2.91,22.56,4.75v2c1.05.08,2.1.17,3.19.25,6.15.74,11.95,2.83,17.81,4.75v2c1.24.23,2.48.45,3.75.69,4.99,1.11,9.49,2.94,14.17,4.98,1.93.84,3.88,1.65,5.84,2.42,16.11,6.35,31.16,15.45,46.23,23.91v2c.87.25,1.73.49,2.62.75,3.55,1.31,6.29,3.13,9.38,5.25,1.58,1.06,3.16,2.11,4.74,3.16,1.71,1.15,3.42,2.31,5.13,3.46q1.32.88,2.66,1.77c.83.56,1.66,1.12,2.52,1.7q1.14.76,2.3,1.54c.54.45,1.09.9,1.65,1.36v2q1.09.38,2.2.77c2.98,1.31,5.05,2.84,7.55,4.92,3.99,3.28,8.03,6.46,12.14,9.57,2.54,2.09,4.79,4.4,7.11,6.74,1.82,1.68,3.66,3.34,5.5,5,5.26,4.73,10.08,9.48,14.5,15,1.66,1.67,3.33,3.34,5,5,8.74,9.24,17,18.8,24.54,29.05,1.59,2.12,3.24,4.19,4.89,6.26,3.24,4.14,6.04,8.47,8.81,12.93,1.69,2.65,3.48,5.2,5.32,7.75,2.91,4.12,5.35,8.35,7.7,12.81,2.57,4.72,5.35,9.32,8.14,13.91,2.53,4.24,4.66,8.51,6.61,13.05.95,2.15,1.99,4.22,3.07,6.3,11.93,23.19,21.42,49.58,26.38,75.19.65,3.3,1.35,6.59,2.04,9.89,8.41,40.19,9.81,79.45,9.76,120.38,0,6.17,0,12.34,0,18.5,0,10.35,0,20.7-.01,31.05-.01,11.89,0,23.77,0,35.66,0,10.29.01,20.58,0,30.87,0,6.11,0,12.22,0,18.33q.06,62.04-4.46,88.81c-.11.64-.21,1.28-.32,1.94-.78,4.78-1.62,9.54-2.49,14.31-.13.69-.25,1.38-.38,2.09-3.48,18.84-8.06,36.88-14.56,54.94-.99,2.77-1.92,5.56-2.84,8.35-3.8,11.53-8.61,22.35-14.02,33.21-1.09,2.2-2.17,4.41-3.23,6.62-8.35,17.23-18.2,33.8-29.29,49.4-1.21,1.73-2.39,3.48-3.54,5.24-2.82,4.15-5.94,8.02-9.07,11.93-2.17,2.73-4.2,5.41-6.1,8.34-2.07,3.02-4.33,5.34-6.97,7.88-1.86,1.98-3.68,3.99-5.5,6-4.17,4.61-8.48,9.03-12.94,13.38-1.99,2.03-3.81,4.07-5.62,6.25-2.12,2.5-4.11,4.66-6.94,6.38h-2c-.26.6-.52,1.19-.79,1.8-1.3,2.35-2.54,3.6-4.59,5.32-.7.59-1.4,1.18-2.12,1.79-.83.69-1.65,1.37-2.5,2.08-1.04.89-2.08,1.78-3.12,2.68-1.08.92-2.17,1.84-3.25,2.76-.52.45-1.05.9-1.59,1.36q-3.81,3.2-6.04,3.2v2q-1.61.87-3.25,1.75c-3.08,1.75-5.28,3.7-7.75,6.25q-4.5,3-7,3v2q-16.17,12-22,12v2c-6.36,3.48-12.72,6.96-19.09,10.42-1.8.98-3.61,1.97-5.41,2.95-8.07,4.42-15.99,8.45-24.67,11.59-2.45.9-4.78,1.88-7.14,2.98-10.52,4.75-21.25,8.37-32.43,11.2-2.55.68-4.89,1.43-7.32,2.43-7.08,2.84-15.3,4.74-22.94,4.44v2q-25.49,4.19-38.18,5.61-2.76.23-4.82,1.39c-4.82.52-9.66.77-14.5,1.06-.72.04-1.44.09-2.19.13-19.52,1.17-38.86,1.08-58.38-.07-.68-.04-1.37-.08-2.07-.12-6.63-.39-13.04-.86-19.48-2.48-6.77-1.5-13.76-2.08-20.63-2.94-6.33-.83-12.3-1.85-18.37-3.84-5.11-1.62-10.38-2.67-15.61-3.86-5.01-1.16-9.87-2.51-14.73-4.19-2.8-.96-5.64-1.8-8.48-2.64-7.98-2.44-15.53-5.57-23.12-9.02-2.74-1.17-5.52-2.16-8.32-3.17-9.12-3.47-17.57-8.21-26.12-12.88-.88-.48-1.77-.96-2.68-1.45-2.67-1.45-5.34-2.9-8.01-4.36-.81-.44-1.63-.89-2.46-1.34-6.71-3.7-13.19-7.68-19.54-11.97-2.43-1.64-4.83-3.17-7.38-4.62q-.96-.62-1.94-1.25v-2c-.72-.27-1.44-.54-2.19-.81-4.31-1.82-7.53-3.91-10.81-7.19-.89-.52-1.77-1.03-2.69-1.56q-1.14-.71-2.31-1.44v-2q-.84-.38-1.69-.76c-6.54-3.51-12.17-8.95-17.31-14.24-.93-.72-1.86-1.44-2.81-2.19-.72-.6-1.44-1.2-2.19-1.81v-2c-.56-.23-1.11-.45-1.69-.69-2.96-1.68-4.94-3.88-7.31-6.31-.99-.83-1.98-1.65-3-2.5-5.05-4.21-9.33-8.94-13.56-13.94-1.06-1.25-2.12-2.49-3.18-3.74-.54-.63-1.08-1.27-1.63-1.92-1.58-1.85-3.16-3.68-4.76-5.51-16.06-18.47-29.98-38.68-41.95-60.01-2.36-4.17-4.81-8.27-7.27-12.38-1.71-3.14-3.14-6.33-4.56-9.6-1.08-2.42-2.23-4.8-3.41-7.18-5.41-10.96-9.96-21.9-13.76-33.52-.96-2.84-1.98-5.65-3.03-8.46-9.97-27.5-15.87-57.18-18.89-86.25-.09-.83-.18-1.66-.27-2.51C-.43,615.66.02,591.42.05,567.22c0-6.26,0-12.52,0-18.77,0-11.17,0-22.34.01-33.51,0-10.06,0-20.12,0-30.19-.01-11.77-.01-23.55,0-35.32,0-6.2,0-12.4,0-18.6q-.06-61.28,4.46-88.23.16-.97.32-1.95c.79-4.79,1.62-9.58,2.49-14.36q.19-1.03.38-2.07c4.33-23.75,10.67-46.43,19.8-68.83.99-2.51,1.76-5.06,2.51-7.66,1.98-6.12,4.89-11.54,7.97-17.17,2.16-3.96,4.06-7.85,5.65-12.08,3.37-8.51,8.51-16.13,13.29-23.89,1.78-2.94,3.46-5.92,5.14-8.92,2.71-4.69,5.83-8.81,9.36-12.93,1.88-2.43,3.31-4.97,4.8-7.65,1.83-3.02,4.14-5.59,6.47-8.23q4.44-5.13,8.56-10.5c2.86-3.91,5.98-7.57,9.12-11.25.51-.59,1.01-1.19,1.54-1.8,3.72-4.33,7.69-8.34,11.78-12.32,2.77-2.83,5.33-5.79,7.88-8.82,1.79-1.91,3.56-3.43,5.75-4.87h2q.34-.87.69-1.75c1.66-2.84,3.71-4.26,6.31-6.25q.93-.94,1.88-1.89c2.15-2.13,4.37-4,6.75-5.86.78-.61,1.55-1.23,2.35-1.86q2.02-1.39,4.02-1.39c.21-.58.41-1.15.62-1.75,1.89-3.09,4.28-4.44,7.38-6.25h2v-2q14.75-12,20-12v-2c1.46-.84,2.91-1.67,4.38-2.5.81-.46,1.62-.93,2.46-1.41q2.16-1.09,4.16-1.09v-2c1.62-.84,3.25-1.67,4.88-2.5.9-.46,1.81-.93,2.74-1.41q2.38-1.09,4.38-1.09v-2q16-8,17.88-8.94c1.66-.83,3.31-1.66,4.96-2.5,9.5-4.79,18.89-8.92,28.96-12.37,3.33-1.15,6.56-2.35,9.79-3.75,3.42-1.44,6.77-2.48,10.35-3.44,3.78-1.05,7.49-2.08,11.12-3.56,6.87-2.71,14.53-4.73,21.94-4.44v-2c4.27-.7,8.54-1.39,12.81-2.08,1.45-.24,2.9-.47,4.35-.71,2.09-.34,4.19-.68,6.29-1.02,1.26-.2,2.51-.41,3.81-.62,2.72-.42,5.43-.77,8.16-1.08q3.4-.09,4.59-1.49C365.27.1,381.28-.04,397.35.02ZM452.32,105.28v294h248q.06-25.28-3-50c-.16-.88-.32-1.77-.49-2.68-4.49-23.93-11.03-48.3-21.51-70.32q-.69-1.46-1.4-2.95c-.78-1.59-1.59-3.18-2.41-4.76-.87-1.66-1.7-3.34-2.52-5.03-4.07-8.4-8.81-16.31-13.68-24.27-.48-.83-.97-1.66-1.47-2.52-1.97-3.2-4.15-6.25-6.34-9.3-.45-.62-.89-1.24-1.35-1.88q-10.55-14.89-22.83-28.3l-5-5c-.82-.8-1.65-1.61-2.5-2.44q-2.5-2.56-4.94-5.62c-2.64-3.02-5.21-4.77-8.56-6.94-1.69-1.64-3.35-3.31-5-5q-5.79-5.62-13-9v-2c-5.41-4.47-11.59-8.05-17.63-11.6-2.15-1.27-4.26-2.57-6.37-3.9-6.53-4.1-13.04-8.17-20-11.5-.69-.36-1.38-.71-2.09-1.08q-23.41-12.56-48.91-17.92v-2c-.81-.17-1.62-.34-2.46-.52-3.04-.64-6.08-1.29-9.12-1.93-1.95-.41-3.9-.83-5.85-1.24q-1.86-.4-3.76-.8c-1.14-.24-2.27-.48-3.44-.73-2.41-.56-4.79-1.19-7.17-1.87q-2.97-1-5.2-.91ZM102.32,501.28q-3,69.84,2.69,149.25c.17.95.35,1.91.53,2.89,1.85,9.76,4.25,19.34,6.96,28.9.83,2.97,1.61,5.94,2.4,8.92,7.11,25.94,19.25,51.83,34.43,74.04q1,1.48,2.01,3c3.1,4.52,6.39,8.88,9.71,13.24q1.28,1.76,3.03,4.76c.41.66.82,1.32,1.25,2h2c.24.56.49,1.12.74,1.7,1.5,2.74,3.33,4.75,5.45,7.05,2.88,3.13,5.72,6.28,8.5,9.5,2.98,3.41,6,6.67,9.31,9.75h2c.27.6.54,1.2.81,1.82,1.21,2.22,2.31,3.43,4.21,5.06q.91.78,1.83,1.58c.65.55,1.3,1.09,1.96,1.66.67.57,1.33,1.14,2.02,1.72q11.16,10.1,24.17,17.15v2q1.98,1.42,4.5,2.81c.92.53,1.84,1.06,2.78,1.61.9.52,1.79,1.04,2.72,1.57,1.34.83,2.67,1.66,4,2.5q.96.6,1.93,1.21c1.52.95,3.03,1.91,4.54,2.87,4.8,2.99,8.99,5.22,14.53,6.43v2c4.66,2.01,9.33,4.01,14,6,.97.41,1.94.83,2.95,1.25,4.35,1.8,8.32,3.25,13.05,3.75v2c.56.17,1.13.33,1.71.5,2.6.77,5.19,1.54,7.79,2.31.89.26,1.77.52,2.69.79,4,1.19,7.93,2.41,11.81,3.97,4.73,1.82,9.59,2.63,14.57,3.49q9.72,1.72,13.8,2.96c30.78,8.29,69.32,6.12,100.64,1.98.68-.09,1.37-.17,2.08-.26q6.88-.85,13.55-2.65c5.8-1.88,11.81-2.93,17.79-4.15,5.79-1.22,11.09-2.76,16.59-4.94,2.08-.64,4.16-1.27,6.25-1.88,6.46-1.97,12.57-4.41,18.75-7.12,1.54-.66,3.08-1.33,4.61-1.99,1.63-.71,3.26-1.42,4.89-2.13.78-.34,1.56-.67,2.36-1.02,3.74-1.65,6.93-3.29,10.14-5.85,1.52-.8,3.07-1.57,4.62-2.31,7.91-3.88,15.28-8.53,22.56-13.49q1.81-1.2,3.81-2.2v-2c.72-.25,1.43-.51,2.17-.77,8.24-3.58,15.22-10.25,21.83-16.23,2.01-1.75,4.03-3.49,6.04-5.23,2.4-2.18,4.67-4.47,6.96-6.77,1.05-1.04,2.1-2.08,3.16-3.12,1.11-1.11,2.23-2.21,3.34-3.32.56-.55,1.11-1.09,1.68-1.66,3.5-3.48,6.8-7,9.82-10.9v-2c.62-.23,1.24-.45,1.88-.69,2.75-1.7,2.99-3.36,4.12-6.31.99-.33,1.98-.66,3-1q1.77-2.38,3.44-5.25c2.81-4.65,5.85-8.81,9.44-12.88,2.57-3.47,4.48-7.14,6.5-10.95,1.52-2.74,3.18-5.28,4.94-7.86,4.79-7.41,8.11-15.52,11.61-23.59.99-2.26,2-4.51,3.03-6.76,3.8-8.34,6.86-16.71,9.41-25.52.68-2.34,1.39-4.67,2.1-6.99,2.88-9.56,5.3-19.16,7.29-28.95.2-.97.4-1.94.6-2.93,9.78-50.17,3.65-106.13,3.65-154.32H102.32Z"/>
    <path class="cls-1" d="M626.32,799.28c.33.99.66,1.98,1,3q-1.04,1.65-2.62,3.38-.83.92-1.68,1.86c-2.19,2.29-4.45,4.53-6.69,6.77-1.03,1.31-2.04,2.64-3,4l-3-1c3.65-4.36,7.4-8.44,11.45-12.42,1.71-1.74,3.18-3.56,4.55-5.58Z"/>
    <path class="cls-1" d="M109.32,124.28l2,1v3q-.93.12-1.88.25-2.27.56-3.31,2.62c-.65,1.69-1.24,3.41-1.81,5.12h-2l-1,2-3-1q.94-1.03,1.9-2.08c.82-.9,1.63-1.8,2.48-2.73.81-.89,1.62-1.79,2.46-2.71q2.25-2.48,4.16-5.48Z"/>
    <path class="cls-1" d="M609.32,817.28c.66.99,1.32,1.98,2,3-.66.66-1.32,1.32-2,2-.6.85-1.2,1.69-1.81,2.56-2.48,2.76-3.56,3.16-7.19,3.44h-3c1.45-1.34,2.91-2.67,4.38-4,.81-.74,1.62-1.49,2.46-2.25q2.16-1.75,4.16-1.75c.33-.99.66-1.98,1-3Z"/>
    <path class="cls-1" d="M89.32,148.28l2,2c-.6.52-1.2,1.03-1.81,1.56-2.69,3-3.74,5.69-5.19,9.44h-2l-2,2c0-4.76.77-5.3,3.94-8.62q2.87-2.95,5.06-6.38Z"/>
    <path class="cls-1" d="M126.32,108.28q0,3-1,5h-2v2q-1.64,1.73-3.81,3.62c-.71.63-1.42,1.26-2.14,1.91q-2.04,1.46-5.04,1.46c.7-.68,1.4-1.36,2.12-2.06,2.67-2.65,5.06-5.48,7.45-8.39q1.43-1.55,4.43-3.55Z"/>
    <path class="cls-1" d="M67.32,178.28h1q.19,2.31,0,5-1.38,1.56-3,3-1.18,2.1-2,4h-3c1.52-4.56,3.95-8.32,7-12Z"/>
    <path class="cls-1" d="M328.32,891.28q9.41.96,14,2v1h-7v2c-1.32-.33-2.64-.66-4-1v-3c-.99-.33-1.98-.66-3-1Z"/>
    <path class="cls-1" d="M272.32,976.28l1,2q2.02,1.13,4,2c-2.79,1.39-4.12.58-7.06-.31-.9-.26-1.8-.53-2.72-.8q-2.21-.89-3.21-2.89,5.75-1.12,8,0Z"/>
    <path class="cls-1" d="M694.32,868.28l4,2c-1.98,2.31-3.96,4.62-6,7-.66-.33-1.32-.66-2-1q2.88-6.88,4-8Z"/>
    <path class="cls-1" d="M565.32,851.28l2,1q-1.75,3.88-4,5v2q-1.94-.38-4-1c-.33-.66-.66-1.32-1-2,.97-.64,1.94-1.28,2.94-1.94q2.82-1.76,4.06-3.06Z"/>
    <path class="cls-1" d="M637.32,787.28l2,2c-.66.66-1.32,1.32-2,2v4c-.99.33-1.98.66-3,1-.99-.66-1.98-1.32-3-2q3.75-5.88,6-7Z"/>
    <path class="cls-1" d="M661.32,750.28c.66.99,1.32,1.98,2,3-.99.33-1.98.66-3,1,.33,1.65.66,3.3,1,5-1.65.33-3.3.66-5,1,1.33-3.59,2.96-6.75,5-10Z"/>
    <path class="cls-1" d="M536.32,869.28v2q-1.42.12-2.88.25-3.23.4-4.5,2.81c-.21.64-.41,1.28-.62,1.94l-4-2c1.62-.84,3.25-1.67,4.88-2.5.9-.46,1.81-.93,2.74-1.41q2.38-1.09,4.38-1.09Z"/>
    <path class="cls-1" d="M86.32,848.28h5q1.06,1.75,2,4c-.33,1.32-.66,2.64-1,4-1.98-2.64-3.96-5.28-6-8Z"/>
    <path class="cls-1" d="M604.32,941.28h3c.33.99.66,1.98,1,3q-2.38,1.56-5,3c-.66-.33-1.32-.66-2-1q1.31-2.5,3-5Z"/>
    <path class="cls-1" d="M161.32,918.28c2.99,1,3.95,1.75,6,4-.33.66-.66,1.32-1,2-2.89-.4-3.82-.79-5.75-3.06-.41-.64-.83-1.28-1.25-1.94l2-1Z"/>
    <path class="cls-1" d="M187.32,812.28l6,4c-.33.66-.66,1.32-1,2q-2.06.62-4,1-2-3-1.62-5.19c.21-.6.41-1.2.62-1.81Z"/>
    <path class="cls-1" d="M140.32,750.28c2.74,3.2,4.63,6,6,10-1.32-.33-2.64-.66-4-1v-5c-.99-.33-1.98-.66-3-1,.33-.99.66-1.98,1-3Z"/>
    <path class="cls-1" d="M659.32,94.28l6,3c-.33.66-.66,1.32-1,2-.66-.33-1.32-.66-2-1v2h-2c-.66-1.65-1.32-3.3-2-5l1-1Z"/>
    <path class="cls-1" d="M626.32,799.28c.33.99.66,1.98,1,3l-7,7c-.66-.33-1.32-.66-2-1,2.64-2.97,5.28-5.94,8-9Z"/>
    <path class="cls-1" d="M592.32,163.28q1.5,1.31,3,3v3q.99,1.49,2,3-1.94-.81-4-2c-.33-.99-.66-1.98-1-3-.66-.33-1.32-.66-2-1,.66-.99,1.32-1.98,2-3Z"/>
    <path class="cls-1" d="M516.51,120.21q.9.53,1.81,1.06v3l-9-3q4.46-2.23,7.19-1.06Z"/>
    <path class="cls-1" d="M227.32,957.28c2.13,1.07,3.37,2.29,5,4-2.79,1.03-3.87,1.05-6.75.06-.74-.35-1.48-.7-2.25-1.06,1.32-.99,2.64-1.98,4-3Z"/>
    <path class="cls-1" d="M69.32,175.28l1,2h2c-.31.6-.62,1.2-.94,1.81q-1.16,2.28-2.06,5.19c-.66-.33-1.32-.66-2-1q.88-6.88,2-8Z"/>
    <path class="cls-1" d="M590.32,834.28l2,1c-2.37,2.62-4.86,4.39-8,6-.66-.33-1.32-.66-2-1,2.64-1.98,5.28-3.96,8-6Z"/>
    <path class="cls-1" d="M533.32,127.28q.62,2.06,1,4c-2.35-.6-4.69-1.27-7-2-.33-.66-.66-1.32-1-2q4.75-1.12,7,0Z"/>
    <path class="cls-1" d="M230.32,38.28l1,4q-1.81.69-4,1-1.75-1.44-3-3,3.75-2,6-2Z"/>
    <path class="cls-1" d="M73.32,830.28h2v2c1.32.66,2.64,1.32,4,2-.33,1.32-.66,2.64-1,4-.84-1.14-1.67-2.29-2.5-3.44-.46-.64-.93-1.28-1.41-1.93q-1.09-1.63-1.09-2.63Z"/>
    <path class="cls-1" d="M649.32,230.28l6,1c-.33,1.65-.66,3.3-1,5-1.69-1.65-3.35-3.31-5-5v-1Z"/>
    <path class="cls-1" d="M608.32,182.28h6v6c-2.02-1.64-4.02-3.31-6-5v-1Z"/>
  </g>
</svg>