<?xml version="1.0" encoding="UTF-8"?>
<svg id="Calque_2" data-name="Calque 2" xmlns="http://www.w3.org/2000/svg" viewBox="0 0 268.51 513.4">
  <defs>
    <style>
      .cls-1 {
        fill: #f6f6f6;
      }
    </style>
  </defs>
  <g id="Calque_1-2" data-name="Calque 1">
    <g>
      <path class="cls-1" d="M141.25.4c4.83,2.36,8.23,6.13,11.94,9.94,1.89,1.89,3.83,3.64,5.87,5.38,11.94,10.37,23.25,21.36,25.46,37.74.65,12.88-7.09,25.67-15.21,35.01-5.01,5.4-10.77,9.76-16.76,14.02-.66.47-1.32.94-2,1.42-.59.41-1.18.82-1.79,1.24q-1.8,1.36-3.52,4.25c1.67,2.02,2.65,2.91,5.23,3.54.86.08,1.72.16,2.61.24.97.1,1.94.2,2.94.3,1.04.1,2.08.2,3.16.3,33.38,3.69,66.48,15.73,89.06,41.62,16.54,21.05,20.15,43.06,20.15,69.08,0,1.71,0,3.43.01,5.14,0,4.63.01,9.27.01,13.9,0,2.91,0,5.81,0,8.72,0,10.16.01,20.33.01,30.49,0,9.43,0,18.85.03,28.28.01,8.13.02,16.26.02,24.39,0,4.84,0,9.68.01,14.52,0,4.56,0,9.12,0,13.68,0,1.66,0,3.32,0,4.97.05,14.85-.36,30.22-4.5,44.58-.21.78-.43,1.55-.65,2.35-6.81,23.82-19.41,43.67-37.1,60.9-.46.51-.92,1.01-1.4,1.54-5.46,5.85-11.95,10.1-18.6,14.46q-1.19.8-2.39,1.62c-27.28,17.58-64.88,23.29-96.54,16.75-3.05-.69-6.06-1.49-9.06-2.38q-1.1-.32-2.22-.65c-14.38-4.37-27.53-10.81-39.85-19.41-.69-.48-1.38-.96-2.09-1.46-4.74-3.42-8.8-7.26-12.85-11.48-.78-.76-1.57-1.53-2.38-2.31-.87-.89-1.73-1.77-2.62-2.69-.63-.64-1.27-1.28-1.92-1.93C7.81,440.58.09,404.43.11,367.12c0-1.71,0-3.42-.01-5.13,0-4.62-.01-9.23-.01-13.85,0-2.89,0-5.78,0-8.68,0-10.11-.01-20.23-.01-30.34,0-9.39,0-18.78-.03-28.17-.01-8.09-.02-16.19-.02-24.28,0-4.82,0-9.64-.01-14.46,0-4.54,0-9.07,0-13.61,0-1.65,0-3.31,0-4.96-.09-26.34,5.1-49.32,23.25-69.24.61-.69,1.22-1.39,1.86-2.1,23.26-24.89,60.18-36.01,93.14-38.9-.08-1.11-.17-2.23-.25-3.38.08-9.09,4.45-15.64,10.55-22.04,5.67-5.43,11.7-10.49,17.91-15.29,5.64-4.46,9.1-9.74,10.48-16.85-2.42-12.09-17.76-23.56-27.44-30.38-3.16-2.89-4.96-5.98-6.25-10.06.08-4.8,1.05-8.2,4-12,4.22-3.6,8.69-3.82,14-3ZM149.25,139.4v153q18.32-.64,36.38-2.69c1.11-.17,2.23-.34,3.37-.52,7.84-1.27,15.59-2.84,23.31-4.67q1.41-.33,2.84-.67c9.2-2.28,18.13-5.39,27.1-8.46.05-8.36.08-16.73.1-25.09.01-3.89.02-7.77.05-11.65.02-3.76.03-7.52.04-11.28,0-1.42.01-2.85.02-4.27.16-21.48-3.65-39.76-18.77-55.83-19.24-18.31-48.14-27.88-74.44-27.88ZM47.25,168.4c-.71.63-1.42,1.25-2.14,1.89-12.61,11.84-18.22,26.7-19.03,43.73-.06,3.88-.05,7.76-.02,11.64,0,1.42,0,2.83,0,4.25,0,3.68.03,7.36.05,11.04.02,3.77.03,7.55.04,11.32.02,7.37.06,14.74.1,22.12,10.59,3.44,21.11,6.78,32,9.12,1.13.25,2.26.49,3.43.75,8.05,1.7,16.13,3.14,24.26,4.38.98.15,1.96.3,2.97.46,11.42,1.63,22.79,2.33,34.34,3.29v-153c-26.45,0-56.32,11.52-76,29ZM26.25,302.4c-.05,10.12-.08,20.24-.1,30.36-.01,4.7-.02,9.4-.05,14.1-.02,4.55-.03,9.1-.04,13.66,0,1.72-.01,3.44-.02,5.16-.09,14.97.19,30.4,4.77,44.78.26.82.51,1.65.78,2.5,7.47,22.75,23.18,43.82,43.66,56.44q1.55.98,3.14,1.99c8.82,5.42,17.95,9.09,27.86,12.01,1.15.34,2.31.68,3.5,1.04,25.56,6.24,55.05,2,77.77-11.3,15.88-10.11,28.82-21.56,38.73-37.74.35-.56.7-1.13,1.06-1.71,4.49-7.38,7.76-14.92,10.32-23.17.24-.75.48-1.51.72-2.28,4.15-14.36,4.19-29.4,4.1-44.22,0-1.79,0-3.58,0-5.38,0-4.65-.03-9.31-.05-13.96-.02-4.77-.03-9.55-.04-14.32-.02-9.32-.06-18.64-.1-27.96-.69.2-1.38.4-2.1.6-3.21.91-6.42,1.82-9.63,2.73-1.09.31-2.18.62-3.3.94-11.54,3.26-23.16,5.72-34.98,7.73-.93.17-1.85.33-2.8.5-33.15,5.68-70.03,4.67-103.2-.5-1.15-.18-2.31-.35-3.49-.54-15.81-2.49-31.36-5.89-46.86-9.88-3.2-.71-6.4-1.13-9.65-1.58Z"/>
      <path class="cls-1" d="M156.25,150.4c25.18,5.04,50.87,10.34,66.44,32.5.89,1.48,1.74,2.98,2.56,4.5.44.81.87,1.61,1.32,2.44,6.3,12.69,8.84,27,8.81,41.07,0,.89,0,1.78,0,2.7,0,1.87,0,3.74,0,5.61,0,2.86,0,5.73,0,8.59,0,1.82,0,3.65,0,5.47,0,.85,0,1.71,0,2.59q0,1.2,0,2.42c0,.7,0,1.4,0,2.12-.13,2.1-.56,3.97-1.13,5.99-25.5,7.72-51.32,13-78,13v-129Z"/>
    </g>
  </g>
</svg>