<?xml version="1.0" encoding="UTF-8"?>
<svg id="Calque_2" data-name="Calque 2" xmlns="http://www.w3.org/2000/svg" viewBox="0 0 260 259.8">
  <defs>
    <style>
      .cls-1 {
        fill: #f6f6f6;
      }
    </style>
  </defs>
  <g id="Calque_1-2" data-name="Calque 1">
    <path class="cls-1" d="M48.03,82.82c.98.32,1.96.65,2.97.98q.95,3.01,1,7c-1.92,3.08-4.49,5.42-7.12,7.9q-1.1,1.08-2.22,2.19c-2.35,2.3-4.72,4.57-7.09,6.85-1.6,1.56-3.19,3.11-4.78,4.67-3.91,3.82-7.83,7.61-11.78,11.39q1.53.01,3.1.02c9.62.08,19.25.17,28.87.26,4.95.05,9.9.1,14.84.13,4.77.04,9.54.08,14.32.14,1.82.02,3.65.03,5.47.05,2.55.02,5.1.05,7.64.08.76,0,1.52,0,2.3,0q5.22.08,7.45,2.31.25,3,0,6c-2.9,2.9-5.87,2.31-9.75,2.32-.8.01-1.6.02-2.42.03-2.65.03-5.3.05-7.95.06-1.84.02-3.67.04-5.51.06-4.84.05-9.67.09-14.51.13-4.93.04-9.87.09-14.8.14-9.68.1-19.37.18-29.05.26.42.4.83.8,1.26,1.21,4.32,4.15,8.62,8.32,12.89,12.51,1.6,1.56,3.21,3.11,4.82,4.66,2.32,2.22,4.61,4.47,6.9,6.72.73.69,1.45,1.37,2.2,2.08,1.88,1.88,3.51,3.57,4.92,5.82q-.05,3.99-1,7c-2.82,1.05-4.08,1.45-7,1-3.8-2.56-6.87-5.82-10.05-9.1-.95-.95-1.9-1.9-2.86-2.85-1.99-1.99-3.97-4-5.94-6.02-2.52-2.58-5.06-5.13-7.62-7.67-1.97-1.96-3.92-3.93-5.87-5.91-1.39-1.4-2.78-2.8-4.18-4.19-.84-.86-1.68-1.73-2.54-2.62q-1.11-1.13-2.24-2.28c-2.09-2.89-2.62-4.81-2.71-8.36q1.13-2.02,2.9-3.82.98-1.02,1.97-2.06c.7-.7,1.4-1.4,2.12-2.12,1.36-1.44,2.72-2.88,4.08-4.32,3.93-4.07,7.9-8.11,11.87-12.15,1.71-1.74,3.41-3.49,5.1-5.24,2.45-2.55,4.93-5.06,7.42-7.58.75-.79,1.5-1.58,2.28-2.39q5.93-5.9,10.29-5.3Z"/>
    <path class="cls-1" d="M134,.8q2.36,1.71,4.64,3.95,1.3,1.26,2.62,2.54c.91.91,1.83,1.83,2.77,2.77.96.95,1.92,1.89,2.87,2.84,2,1.98,3.99,3.97,5.98,5.97,2.54,2.55,5.11,5.08,7.69,7.59,1.98,1.94,3.95,3.91,5.91,5.87,1.4,1.39,2.81,2.77,4.23,4.15q6.12,6.23,6.62,9.5-.27,1.95-1.33,4.82-3.01.95-7,1c-3.08-1.92-5.42-4.49-7.9-7.12q-1.08-1.1-2.19-2.22c-2.3-2.35-4.57-4.72-6.85-7.09-1.56-1.6-3.11-3.19-4.67-4.78-3.82-3.91-7.61-7.83-11.39-11.78,0,1.02-.02,2.05-.02,3.1-.08,9.62-.17,19.25-.26,28.87-.05,4.95-.1,9.9-.13,14.84-.04,4.77-.08,9.54-.14,14.32-.02,1.82-.03,3.65-.05,5.47-.02,2.55-.05,5.1-.08,7.64,0,.76,0,1.52,0,2.3q-.08,5.22-2.31,7.45-3,.25-6,0c-2.9-2.9-2.31-5.87-2.32-9.75q-.02-1.2-.03-2.42c-.03-2.65-.05-5.3-.06-7.95-.02-1.84-.04-3.67-.06-5.51-.05-4.84-.09-9.67-.13-14.51-.04-4.93-.09-9.87-.14-14.8-.1-9.68-.18-19.37-.26-29.05-.4.42-.8.83-1.21,1.26-4.15,4.32-8.32,8.62-12.51,12.89-1.56,1.6-3.11,3.21-4.66,4.82-2.22,2.32-4.47,4.61-6.72,6.9-.69.73-1.37,1.45-2.08,2.2-1.88,1.88-3.57,3.51-5.82,4.92q-3.99-.05-7-1c-1.06-2.83-1.46-4.07-1-7,2.61-3.81,5.92-6.87,9.24-10.05.96-.95,1.92-1.9,2.88-2.86,2.53-2.5,5.07-4.98,7.63-7.45,2.08-2.02,4.15-4.06,6.22-6.11,4.26-4.21,8.54-8.41,12.85-12.59.76-.74,1.52-1.48,2.31-2.24,3.47-3.15,5.4-2.85,9.88-1.71Z"/>
    <path class="cls-1" d="M130,156.55q3,.25,5,2.25c.22,2.62.31,5.13.32,7.75.01.8.02,1.6.03,2.42.03,2.65.05,5.3.06,7.95.02,1.84.04,3.67.06,5.51.05,4.84.09,9.67.13,14.51.04,4.93.09,9.87.14,14.8.1,9.68.18,19.37.26,29.05.4-.42.8-.83,1.21-1.26,4.15-4.32,8.32-8.62,12.51-12.89,1.56-1.6,3.11-3.21,4.66-4.82,2.22-2.32,4.47-4.61,6.72-6.9.69-.73,1.37-1.45,2.08-2.2,1.88-1.88,3.57-3.51,5.82-4.92q3.99.05,7,1c1.05,2.82,1.45,4.08,1,7-2.56,3.8-5.82,6.87-9.1,10.05-.95.95-1.9,1.9-2.85,2.86-1.99,1.99-4,3.97-6.02,5.94-2.58,2.52-5.13,5.06-7.67,7.62-1.96,1.97-3.93,3.92-5.91,5.87-1.4,1.39-2.8,2.78-4.19,4.18-.86.84-1.73,1.68-2.62,2.54-.75.74-1.51,1.48-2.28,2.24-2.89,2.09-4.81,2.62-8.36,2.71q-2.02-1.13-3.82-2.9c-.68-.65-1.36-1.3-2.06-1.97-.7-.7-1.4-1.4-2.12-2.13q-1.05-1.01-2.13-2.03c-4.82-4.61-9.55-9.33-14.28-14.03-1.73-1.72-3.47-3.43-5.22-5.14-2.53-2.48-5.05-4.97-7.56-7.46-.78-.76-1.57-1.52-2.38-2.31q-1.07-1.08-2.17-2.18c-.63-.63-1.27-1.25-1.92-1.89-1.72-2.49-1.7-3.99-1.35-6.96q1.19-1.81,3-3c2.87-.32,4.43-.39,6.85,1.25.58.59,1.15,1.17,1.74,1.78.66.66,1.32,1.32,2,2,.7.72,1.39,1.44,2.11,2.19q1.09,1.1,2.2,2.22c2.31,2.34,4.61,4.7,6.91,7.06,1.57,1.59,3.13,3.18,4.7,4.77,3.84,3.9,7.67,7.81,11.49,11.73,0-1.02.02-2.05.02-3.1.08-9.62.17-19.25.26-28.87.05-4.95.1-9.9.13-14.84.04-4.77.08-9.54.14-14.32.02-1.82.03-3.65.05-5.47.02-2.55.05-5.1.08-7.64,0-.76,0-1.52,0-2.3q.12-7.27,5.31-7.7Z"/>
    <path class="cls-1" d="M216,82.8q2.23,1.59,4.5,3.85c.86.84,1.71,1.68,2.6,2.55.91.92,1.82,1.84,2.76,2.79.95.95,1.91,1.9,2.86,2.85,2,1.99,3.99,3.99,5.97,6,2.54,2.57,5.1,5.11,7.66,7.65,1.98,1.96,3.94,3.93,5.9,5.9,1.39,1.4,2.8,2.79,4.2,4.18.84.86,1.69,1.72,2.56,2.61.75.75,1.49,1.5,2.26,2.27,2.11,2.88,2.63,4.79,2.72,8.35q-1.13,2.02-2.9,3.82c-.65.68-1.3,1.36-1.97,2.06-.7.7-1.4,1.4-2.12,2.12-1.36,1.44-2.72,2.88-4.08,4.32-3.93,4.07-7.9,8.11-11.87,12.15-1.71,1.74-3.41,3.49-5.1,5.24-2.45,2.55-4.93,5.06-7.42,7.58-.75.79-1.5,1.58-2.28,2.39q-5.22,5.2-8.34,5.57-1.95-.27-4.91-1.25-.95-3.01-1-7c1.92-3.08,4.49-5.42,7.12-7.9q1.1-1.08,2.22-2.19c2.35-2.3,4.72-4.57,7.09-6.85,1.6-1.56,3.19-3.11,4.78-4.67,3.91-3.82,7.83-7.61,11.78-11.39q-1.53-.01-3.1-.02c-9.62-.08-19.25-.17-28.87-.26-4.95-.05-9.9-.1-14.84-.13-4.77-.04-9.54-.08-14.32-.14-1.82-.02-3.65-.03-5.47-.05-2.55-.02-5.1-.05-7.64-.08-.76,0-1.52,0-2.3,0q-5.22-.08-7.45-2.31-.25-3,0-6c2.9-2.9,5.87-2.31,9.75-2.32.8-.01,1.6-.02,2.42-.03,2.65-.03,5.3-.05,7.95-.06,1.84-.02,3.67-.04,5.51-.06,4.84-.05,9.67-.09,14.51-.13,4.93-.04,9.87-.09,14.8-.14,9.68-.1,19.37-.18,29.05-.26-.41-.4-.83-.8-1.25-1.22-4.3-4.19-8.58-8.39-12.85-12.61-1.6-1.57-3.2-3.14-4.8-4.7-2.31-2.24-4.59-4.51-6.88-6.77-.72-.7-1.44-1.39-2.19-2.11-.66-.66-1.32-1.32-2-2q-.88-.86-1.78-1.74c-1.64-2.43-1.57-3.98-1.25-6.85,2.18-3.32,4.19-3.45,8-3Z"/>
    <path class="cls-1" d="M172.75,208.05c1.07.25,2.14.5,3.25.75q-.84.15-1.69.31c-3.73,1.11-6.58,2.95-9.31,5.69q0-3,1.56-5.25,2.44-1.75,6.19-1.5Z"/>
    <path class="cls-1" d="M101,25.8l1,2q-1.31,2.62-3,5h-2l-1,2-2-2,7-7Z"/>
    <path class="cls-1" d="M10,116.8l1,2c-2.48,3.45-3.8,5.23-8,6,.98-1.15,1.96-2.29,2.94-3.44.55-.64,1.09-1.28,1.65-1.93.78-.9,1.57-1.79,2.41-2.63Z"/>
  </g>
</svg>