<?xml version="1.0" encoding="UTF-8"?>
<svg id="Calque_2" data-name="Calque 2" xmlns="http://www.w3.org/2000/svg" viewBox="0 0 1815.14 325.35">
  <defs>
    <style>
      .cls-1, .cls-2 {
        fill: none;
        stroke: #f6f6f6;
        stroke-miterlimit: 10;
      }

      .cls-3 {
        fill: #9d9d9c;
      }

      .cls-2 {
        stroke-width: 4px;
      }
    </style>
  </defs>
  <g id="Calque_1-2" data-name="Calque 1">
    <g>
      <rect class="cls-2" x="36.67" y="9.56" width="1776.32" height="38.54" transform="translate(1849.87 49.8) rotate(179.51)"/>
      <path class="cls-1" d="M36.69,56.4L1.37,95.14s-2.51,16.45.98,22.36,14.23,13.4,14.23,13.4l73.29-.34.96,19.54,88.11-.47.64,151.28,216.93.9.21-22,5.81-12-1.04-113.98s.46-6.91,6.76-6.48c6.3.43,79.66,4.59,79.66,4.59,0,0,8.8-3.46,16.44,14.54,4.61,17.85,28.74,109.6,28.74,109.6l185.87.74,8.17,7.08,20.68-.21,3.45-3.36,30.01.36-1.13-26.8,181.19-28.06,14.69.47-1.73-44.58-12.47-1.09-.31-6.09s4.66-8.29,8.06-8.24,24.57,1.55,24.57,1.55l24.13-5.44s37.82-10.21,46.55-17.97c11.22-4.08,34.3-11.88,34.3-11.88l88.73-17.83,34.09-2.64,24.63.14,42.52-1.02,35.59-.14,36.24-.19,26.45-.5,90.65-.55,252.03-2.06s10.79-.53,15.7-1.51,52.36-21.66,52.36-21.66c0,0,14.21-8.37,14.92-19.34s.12-24.68.12-24.68l-22.36.19s6.39,3.91,3.65,20.43c-10.6,10.55-13.38,13.82-25.78,19s-18.11,8.67-27.23,9.93c-9.12,1.26-48.72,2.99-48.72,2.99l-156.91,1.21s-22.24-1.44-29.48-3.8c-7.24-2.36-13.33-10.92-13.51-21.14-.17-10.22,2.16-25.23,7.21-26.15-8.93.08-33.15.28-33.15.28,0,0,6.69,3.78,7.67,17.36s-3.41,25.29-3.41,25.29c0,0-4.42,5.93-14.41,6.23s-64.16,3.03-64.16,3.03l-134.57,1.93-51.95.71-34.38,3.26s-14.8-4.43-19.7-8.74c-.93-5.82-2.7-19.58-2.7-19.58,0,0,1.7-23.23,5.91-26.84l-56.16.48s5.87-1.21.09,10.48c-9.05,8.92-26.37,26.81-26.37,26.81l-8.38-.97-23.98,19.75s-13.95-23.21-19.5-25.91c-5.54-2.7-50.19-29.07-50.19-29.07l-62.74.53s2.46,1.54-1.06,5.59c-5.39,2.58-133.97,78.38-133.97,78.38,0,0-10.97,7.33-32.62,4.09-21.01-1.42-152.64-11.45-152.64-11.45,0,0-10.6-.35-15.23-16.87-1.11-17.24-2.91-52.1-2.91-52.1,0,0-.16-4.77,3.02-4.79-7.39.06-36.04.31-36.04.31,0,0,3.06.52,3.88,5.35s1.82,51.07,1.82,51.07c0,0-.3,11.25-9.82,11.93-9.52.67-125.95-5.37-125.95-5.37l-66.01-1.17-67.58,1.27-78.08.35-51.6.54-63.87-1.27s-16.33,2.45-22.04-13.63c-2.17-17.21-1.58-32.66-1.58-32.66,0,0,3.21-12.34,7.84-12.38-9.41.08-26.77.98-26.77.98Z"/>
      <path class="cls-1" d="M976.8,150.68l-121.24-7.09s-30.5-1.15-13.64-33c29.83-18.33,100.14-52.54,100.14-52.54,0,0,44.29,14.3,69.59,34.33,13.59,19.06,5.83,30.27,5.83,30.27l-30.42,23.82s-5.3,4.38-10.25,4.2Z"/>
      <path class="cls-1" d="M1107.15,115.69l-47.68,11.67s-3.54-.9,1.37-5.77,19.99-17.27,19.99-17.27l.97-8.65,47.62-39.28,3.59,18.84-1.27,17.51-24.58,22.94Z"/>
      <rect class="cls-3" x="571.28" y="290.26" width="50.16" height="34.8" transform="translate(1196.23 608.42) rotate(179.34)"/>
      <rect class="cls-3" x="561.97" y="268.04" width="68.83" height="22.23" rx=".77" ry=".77" transform="translate(1195.95 551.4) rotate(179.34)"/>
      <rect class="cls-3" x="630.57" y="275.17" width="87.04" height="10.14" transform="translate(1351.37 552.68) rotate(179.34)"/>
      <rect class="cls-3" x="716.55" y="213.66" width="10.07" height="72.56" transform="translate(1446.01 491.52) rotate(179.34)"/>
      <rect class="cls-3" x="783.37" y="220.32" width="68.59" height="33.42" transform="translate(1638.02 464.6) rotate(179.34)"/>
      <rect class="cls-3" x="851.14" y="225.13" width="49.1" height="27.94" transform="translate(1754.09 468.07) rotate(179.34)"/>
      <rect class="cls-3" x="899.9" y="226.47" width="61.26" height="25.97" transform="translate(1863.77 468.14) rotate(179.34)"/>
      <path class="cls-1" d="M79.82,40.56s-40.24,14.9-38.12,29.72-5.17,42.35-5.17,42.35c0,0,20.7,11.29,61.64,10.59s235.76.03,235.76.03l167.29,7.73,192.71,14.82,270.35,12.71,108.71-25.41,116.47-28.74h331.06l209.65-4.83s51.04-12.97,67.06-26.43c16.02-13.46,0-43.76,0-43.76,0,0-7.76-3.53-36.71-2.82"/>
      <path class="cls-1" d="M517,40.56s38.82,2.43,39.53,26.67,0,39.53,0,39.53c0,0,4.95,28.87-21.14,26.86"/>
      <path class="cls-1" d="M583.35,40.56s-29.33-5.74-27.02,24.34"/>
      <path class="cls-1" d="M556.53,106.75s-.47,26.28,26.82,30.55"/>
      <path class="cls-1" d="M891.29,28.83s48.88-3.31,49.59,22.1l-111.53,58.59-31.06,26.12s-3.53,14.91-33.18,13.52"/>
      <path class="cls-1" d="M798.29,135.63s-9.82,14.62,20.83,16.06"/>
      <path class="cls-1" d="M979.35,28.69s-39.88-6.35-38.47,22.24c24,11.29,75.88,33.88,75.88,33.88,0,0,14.12,14.12,15.18,24.35,1.06,10.24,11.72,30.8-12.26,36.41"/>
      <path class="cls-1" d="M1034.63,122.3s5.78,17.47,23.6,14.25"/>
      <path class="cls-1" d="M1091.29,28.69s34.12-4.58,36,18.95c-17.41,16-75.53,64-75.53,64,0,0-18,8.71-19.82-2.47"/>
      <path class="cls-1" d="M1051.77,111.63s-18.02,4.54-17.01,11"/>
      <path class="cls-1" d="M1175.24,28.33s-49.12-5.93-47.94,19.31c9.29,11.47,10.18,12.53,10.18,12.53l4.76,35.65s5.47,18.86-18.89,24.87"/>
      <path class="cls-1" d="M1142.24,95.81s1.83,18.8,28.44,13.19"/>
      <path class="cls-1" d="M1442.88,26.42s40.47-4.79,41.65,27.68c1.18,32.47,1.41,36.24,1.41,36.24,0,0,1.41,14.03-18.59,14.03"/>
      <path class="cls-1" d="M1527.82,26.17s-45.08-6.49-43.7,23.65"/>
      <path class="cls-1" d="M1485.94,90.34s-1.86,14.45,25.65,14.03"/>
      <path class="cls-1" d="M588.77,137.3c8.47,5.32,7.62,14.39,7.62,14.39,0,0,2.97,39.59,2.26,57.94-2.47,17.29-16.59,16.24-16.59,16.24h-14.47s-2.12-.71-14.47-5.94c-13.41-1-33.18-22.65-33.18-22.65,0,0-12.35-37.06-13.41-45.59s-22.6-21.51-22.6-21.51"/>
      <path class="cls-1" d="M596.38,151.69s-5.85-13.84,11.43-12.51"/>
      <path class="cls-1" d="M640.82,141.72c3.88.83,4.06,14.44,4.06,14.44,0,0,1.76,38.29,2.21,52.15-2.91,13.41-16.94,15.97-16.94,15.97,0,0-1.24-.26-13.68.35s-17.82-15-17.82-15l1.33,15.6,1.11,29.5"/>
      <path class="cls-1" d="M644.88,156.16s-1.02-14.21,5.07-13.74"/>
      <path class="cls-1" d="M647.09,208.31l4.53,15.21s-.71,5.03,2.03,7.06c2.15,1.37,2.32,1.49,2.32,1.49l28.24-1.06s7.12-.83,7-6.36-2.82-66.14-2.82-66.14c0,0,.79-13.07-5.89-13.59"/>
      <path class="cls-1" d="M688.38,158.52s2.29-12.86,10.82-12.46"/>
      <line class="cls-1" x1="553.12" y1="219.93" x2="555.03" y2="261.18"/>
      <line class="cls-1" x1="553.39" y1="225.88" x2="566.91" y2="225.88"/>
      <line class="cls-1" x1="583" y1="225.87" x2="615.43" y2="224.65"/>
      <line class="cls-1" x1="580" y1="225.87" x2="581.5" y2="254.73"/>
      <line class="cls-1" x1="616.47" y1="224.63" x2="617.5" y2="255.29"/>
      <path class="cls-1" d="M630.15,224.28l8.1-.24s10.16.07,14.23,5.2"/>
      <line class="cls-1" x1="634.57" y1="224.15" x2="635.46" y2="253.62"/>
      <line class="cls-1" x1="655.48" y1="231.75" x2="657.12" y2="265.52"/>
      <line class="cls-1" x1="677.69" y1="231.25" x2="679.28" y2="264.13"/>
      <polyline class="cls-1" points="691.21 224.65 691.41 232.07 699.87 250.45 699.87 266.92 713.75 266.33"/>
      <line class="cls-1" x1="699.87" y1="250.45" x2="713.99" y2="249.94"/>
      <line class="cls-1" x1="691.4" y1="231.69" x2="712.96" y2="230.63"/>
      <line class="cls-1" x1="690.78" y1="213.6" x2="711.67" y2="212.4"/>
      <line class="cls-1" x1="689.94" y1="193.8" x2="710.61" y2="192.87"/>
      <line class="cls-1" x1="689.07" y1="173.93" x2="709.57" y2="172.69"/>
      <path class="cls-1" d="M730.98,274.67l45.88-1.62-4.12-108s2.12-15.59-4-15.8"/>
      <path class="cls-1" d="M772.74,165.05s-.25-15.54,7.18-15.19"/>
      <line class="cls-1" x1="776.22" y1="256.13" x2="731.89" y2="258.78"/>
      <line class="cls-1" x1="775.61" y1="240.31" x2="731.89" y2="243.37"/>
      <line class="cls-1" x1="775.02" y1="224.65" x2="731.89" y2="227.66"/>
      <line class="cls-1" x1="774.41" y1="208.87" x2="731.89" y2="211.96"/>
      <line class="cls-1" x1="773.73" y1="190.87" x2="731.89" y2="193.8"/>
      <line class="cls-1" x1="772.94" y1="170.28" x2="731.89" y2="173.31"/>
      <path class="cls-1" d="M774.64,214.86s3.78-10.05,6.07-11.11c1.24-1.59,8.29-7.76,11.29-17.12,1.24-10.24,1.41-25.06,1.41-25.06,0,0,2.12-10.99-3.53-11.26"/>
      <path class="cls-1" d="M793.42,161.57s1.92-11,9.35-10.65"/>
      <path class="cls-1" d="M835.71,206.46l-2.12-44.88s1.61-9.13-3.53-9.37"/>
      <path class="cls-1" d="M833.6,161.57s.4-9.38,6.97-8.87"/>
      <path class="cls-1" d="M877.29,206.46l-2.47-43.49s1.34-8.6-4.06-8.85"/>
      <path class="cls-1" d="M874.82,162.97s1.82-8.58,7.58-8.3"/>
      <path class="cls-1" d="M917.82,206.97l-2.24-42s-.14-8.75-3.78-8.92"/>
      <path class="cls-1" d="M915.58,164.97s.75-8.71,6.66-8.43"/>
    </g>
  </g>
</svg>