<?xml version="1.0" encoding="UTF-8"?>
<svg id="Calque_2" data-name="Calque 2" xmlns="http://www.w3.org/2000/svg" viewBox="0 0 250.76 349.26">
  <defs>
    <style>
      .cls-1 {
        fill: #f6f6f6;
      }
    </style>
  </defs>
  <g id="Calque_1-2" data-name="Calque 1">
    <path class="cls-1" d="M207.66,30.65c23.01,20.37,40.09,49.12,42.74,80.23.15,4.13.16,8.26.16,12.39,0,1.22,0,2.44.02,3.7.01,3.34.02,6.67.02,10.01,0,2.09,0,4.19.01,6.28.01,6.57.02,13.15.03,19.72,0,7.54.02,15.08.05,22.62.02,5.86.03,11.72.03,17.58,0,3.48,0,6.97.02,10.45.19,39.52-9.71,72.12-37.91,100.84-23.28,22.98-55.06,34.57-87.44,34.79-29.79-.23-56.81-9.5-80-28.38q-1.15-.81-2.32-1.63-.83-.68-1.68-1.37v-2c-.55-.22-1.11-.45-1.68-.68-19.13-10.92-30.7-40.19-36.35-60.1-2.36-9.69-3.27-19.12-3.25-29.08,0-1.22-.01-2.45-.02-3.71-.01-3.32-.01-6.65-.01-9.97,0-2.79,0-5.59,0-8.38-.01-6.6-.01-13.2,0-19.8,0-6.76,0-13.53-.03-20.29-.02-5.85-.02-11.69-.02-17.54,0-3.47,0-6.95-.01-10.42q-.1-27.64,3.38-41.03c.23-.89.45-1.78.68-2.7.55-2.07,1.18-4.09,1.88-6.12.25-.73.5-1.47.75-2.22,4.94-13.82,12.22-26.75,21.68-37.97.82-.98,1.64-1.96,2.48-2.97C48.66,22.26,72.95,8.84,99.41,2.88q1.45-.34,2.92-.69c37.31-7.26,76.76,3.83,105.34,28.45ZM37.78,56.88C11.4,90.17,14.41,125.94,14.41,167.88h222q1.86-39.68-5.69-78.62c-.26-.69-.51-1.39-.77-2.1-10.63-27.83-31.57-49.95-58.54-62.52C123.38,3.18,71.86,18.38,37.78,56.88ZM14.41,181.88q-1.88,40.54,6.12,79.5c.3.79.6,1.58.91,2.39,5.44,13.81,12.91,25.25,22.97,36.11.73.81,1.46,1.62,2.21,2.45,18.95,20.11,47.08,31.71,74.46,32.68,30.68.62,58.59-9.84,80.97-30.8,19.44-19.15,30.51-41.32,34.36-68.33v-54H14.41Z"/>
    <path class="cls-1" d="M127.43,35.27c3.95,1.22,6.47,4.01,9.29,6.93.65.65,1.3,1.3,1.98,1.97,1.37,1.37,2.73,2.76,4.08,4.15,2.07,2.12,4.17,4.21,6.27,6.29,1.33,1.34,2.66,2.69,3.98,4.03.63.62,1.25,1.24,1.9,1.88,3.76,3.93,5.53,6.68,5.48,12.37q-2.06,3-5,5c-3.95-.08-5.7-.8-9-3v-2h-2q-1.55-1.61-3.31-3.75c-2.76-3.35-5.17-5.43-8.69-8.25.33,20.13.66,40.26,1,61,.99-1.32,1.98-2.64,3-4h2q.33-.84.67-1.7c1.75-3.03,3.91-4.86,6.58-7.11q1.4-1.22,2.83-2.46,2.92-1.73,6.16-1.59,2.76.86,4.7,2.49c1.59,3.55,1.02,5.62.06,9.38-1.83,2.64-4.05,4.78-6.37,6.99-.64.63-1.28,1.26-1.93,1.91-2.03,2-4.08,3.99-6.13,5.97-1.38,1.36-2.75,2.71-4.13,4.07q-10.96,10.77-15.06,11.55c-8.42-1.25-15.77-11.59-21.75-17.47-1.05-1.03-2.1-2.05-3.16-3.06-1.55-1.49-3.09-2.99-4.61-4.5-.91-.88-1.81-1.76-2.75-2.67-2.53-3.37-3.01-5.61-3.1-9.79q2.06-3,5-5c3.95.08,5.7.8,9,3v2c1.32.66,2.64,1.32,4,2q4.45,4.46,9,9v-59q-7.21,6.47-14.25,13.12c-2.72,2.37-3.33,2.85-7.06,3.06-3.13-1.38-4.29-2.06-5.69-5.19.07-6.78,2.81-9.72,7.38-14.25.65-.66,1.29-1.31,1.96-1.99,1.37-1.38,2.74-2.75,4.12-4.11,2.1-2.09,4.17-4.21,6.23-6.33,1.33-1.34,2.67-2.67,4.01-4.01.61-.63,1.22-1.27,1.85-1.92,3.58-3.47,6.35-5.46,11.48-5Z"/>
  </g>
</svg>